<?xml version="1.0" encoding="UTF-8" standalone="no"?>
<svg
   xmlns:dc="http://purl.org/dc/elements/1.1/"
   xmlns:cc="http://creativecommons.org/ns#"
   xmlns:rdf="http://www.w3.org/1999/02/22-rdf-syntax-ns#"
   xmlns:svg="http://www.w3.org/2000/svg"
   xmlns="http://www.w3.org/2000/svg"
   xmlns:sodipodi="http://sodipodi.sourceforge.net/DTD/sodipodi-0.dtd"
   xmlns:inkscape="http://www.inkscape.org/namespaces/inkscape"
   inkscape:export-ydpi="96"
   inkscape:export-xdpi="96"
   inkscape:export-filename="/Users/christian/Desktop/logo.png"
   sodipodi:docname="logo_bw.svg"
   inkscape:version="1.0beta2 (2b71d25, 2019-12-03)"
   id="svg8"
   version="1.1"
   viewBox="0 0 210 297"
   height="297mm"
   width="210mm">
  <defs
     id="defs2">
    <inkscape:perspective
       id="perspective30"
       inkscape:persp3d-origin="105 : 99 : 1"
       inkscape:vp_z="210 : 148.5 : 1"
       inkscape:vp_y="0 : 1000 : 0"
       inkscape:vp_x="7.2547041 : 221.47379 : 1"
       sodipodi:type="inkscape:persp3d" />
  </defs>
  <sodipodi:namedview
     inkscape:window-maximized="0"
     inkscape:window-y="23"
     inkscape:window-x="0"
     inkscape:window-height="777"
     inkscape:window-width="1440"
     showgrid="false"
     inkscape:document-rotation="0"
     inkscape:current-layer="layer1"
     inkscape:document-units="mm"
     inkscape:cy="613.94897"
     inkscape:cx="432.84845"
     inkscape:zoom="0.70630939"
     inkscape:pageshadow="2"
     inkscape:pageopacity="0.0"
     borderopacity="1.0"
     bordercolor="#666666"
     pagecolor="#ffffff"
     id="base" />
  <metadata
     id="metadata5">
    <rdf:RDF>
      <cc:Work
         rdf:about="">
        <dc:format>image/svg+xml</dc:format>
        <dc:type
           rdf:resource="http://purl.org/dc/dcmitype/StillImage" />
        <dc:title></dc:title>
      </cc:Work>
    </rdf:RDF>
  </metadata>
  <g
     id="layer1"
     inkscape:groupmode="layer"
     inkscape:label="Livello 1">
    <g
       inkscape:corner7="-0.27776735 : -0.0015983037 : 0.31742187 : 1"
       inkscape:corner0="1.633284 : 0.15607082 : 0 : 1"
       inkscape:perspectiveID="#perspective30"
       style="fill:none;image-rendering:auto;fill-opacity:1;stroke:#98a1b6;stroke-opacity:1;stroke-width:4;stroke-miterlimit:4;stroke-dasharray:none"
       id="g32"
       sodipodi:type="inkscape:box3d">
      <path
         points="163.17293,65.49062 163.17293,217.14592 62.191081,125.42464 62.191081,71.990265 "
         d="M 62.191081,71.990265 163.17293,65.49062 v 151.6553 L 62.191081,125.42464 Z"
         inkscape:box3dsidetype="11"
         style="fill:none;fill-rule:evenodd;stroke:#98a1b6;stroke-linejoin:round;fill-opacity:1;stroke-opacity:1;stroke-width:4;stroke-miterlimit:4;stroke-dasharray:none"
         id="path44"
         sodipodi:type="inkscape:box3dside" />
      <path
         points="44.373867,122.64308 62.191081,125.42464 62.191081,71.990265 44.373867,62.767612 "
         d="m 44.373867,62.767612 v 59.875468 l 17.817214,2.78156 V 71.990265 Z"
         inkscape:box3dsidetype="6"
         style="fill:none;fill-rule:evenodd;stroke:#98a1b6;stroke-linejoin:round;fill-opacity:1;stroke-opacity:1;stroke-width:4;stroke-miterlimit:4;stroke-dasharray:none"
         id="path34"
         sodipodi:type="inkscape:box3dside" />
      <path
         points="142.59239,247.31586 163.17293,217.14592 62.191081,125.42464 44.373867,122.64308 "
         d="M 44.373867,122.64308 142.59239,247.31586 163.17293,217.14592 62.191081,125.42464 Z"
         inkscape:box3dsidetype="13"
         style="fill:none;fill-rule:evenodd;stroke:#98a1b6;stroke-linejoin:round;fill-opacity:1;stroke-opacity:1;stroke-width:4;stroke-miterlimit:4;stroke-dasharray:none"
         id="path42"
         sodipodi:type="inkscape:box3dside" />
      <path
         points="142.59239,29.007925 163.17293,65.49062 62.191081,71.990265 44.373867,62.767612 "
         d="M 44.373867,62.767612 142.59239,29.007925 163.17293,65.49062 62.191081,71.990265 Z"
         inkscape:box3dsidetype="5"
         style="fill:none;fill-rule:evenodd;stroke:#98a1b6;stroke-linejoin:round;fill-opacity:1;stroke-opacity:1;stroke-width:4;stroke-miterlimit:4;stroke-dasharray:none"
         id="path36"
         sodipodi:type="inkscape:box3dside" />
      <path
         points="142.59239,247.31586 163.17293,217.14592 163.17293,65.49062 142.59239,29.007925 "
         d="M 142.59239,29.007925 V 247.31586 l 20.58054,-30.16994 V 65.49062 Z"
         inkscape:box3dsidetype="14"
         style="fill:none;fill-rule:evenodd;stroke:#98a1b6;stroke-linejoin:round;fill-opacity:1;stroke-opacity:1;stroke-width:4;stroke-miterlimit:4;stroke-dasharray:none"
         id="path40"
         sodipodi:type="inkscape:box3dside" />
      <path
         points="142.59239,29.007925 142.59239,247.31586 44.373867,122.64308 44.373867,62.767612 "
         d="M 44.373867,62.767612 142.59239,29.007925 V 247.31586 L 44.373867,122.64308 Z"
         inkscape:box3dsidetype="3"
         style="fill:none;fill-rule:evenodd;stroke:#98a1b6;stroke-linejoin:round;fill-opacity:1;stroke-opacity:1;stroke-width:4;stroke-miterlimit:4;stroke-dasharray:none"
         id="path38"
         sodipodi:type="inkscape:box3dside" />
    </g>
    <circle
       r="0.21316028"
       cy="139.54637"
       cx="119.91599"
       style="fill:#ffffff;stroke:#000000"
       id="path48" />
    <path
       inkscape:connector-curvature="0"
       id="path52"
       d="m 89.616935,163.87097 c 2.560484,-30.72581 -8.534948,-63.58535 -32.006047,-54.19691 -23.471103,9.38844 8.534944,-26.885081 8.534944,-26.885081 0,0 39.687498,-2.560484 37.980508,18.776881 -1.70699,21.33736 10.66869,-49.50269 10.66869,-49.50269 0,0 22.19086,3.41398 19.20362,14.936158 -2.98723,11.522175 -15.3629,43.954972 -12.80241,50.782932 2.56048,6.82795 28.59206,-22.61761 28.59206,-22.61761 0,0 11.52218,32.43279 -1.70698,38.40726 -13.22917,5.97446 -31.15256,7.2547 -31.15256,7.2547 0,0 22.61761,64.0121 6.82796,52.06317 -15.78965,-11.94892 -34.139785,-29.01881 -34.139785,-29.01881 z"
       style="fill:#98a1b6;stroke:none;stroke-width:0.26458300000000001px;stroke-linecap:butt;stroke-linejoin:miter;stroke-opacity:1;fill-opacity:1" />
  </g>
</svg>
